G04 MADE WITH FRITZING*
G04 WWW.FRITZING.ORG*
G04 DOUBLE SIDED*
G04 HOLES PLATED*
G04 CONTOUR ON CENTER OF CONTOUR VECTOR*
%ASAXBY*%
%FSLAX23Y23*%
%MOIN*%
%OFA0B0*%
%SFA1.0B1.0*%
%ADD10C,0.104488*%
%ADD11C,0.085000*%
%ADD12C,0.135984*%
%ADD13C,0.087701*%
%ADD14C,0.080555*%
%ADD15C,0.080583*%
%ADD16C,0.109000*%
%ADD17R,0.080570X0.080542*%
%ADD18R,0.109000X0.109000*%
%LNMASK0*%
G90*
G70*
G54D10*
X381Y690D03*
X381Y490D03*
X381Y290D03*
X337Y1969D03*
X337Y1769D03*
X337Y1569D03*
X337Y1369D03*
X1617Y843D03*
X1617Y643D03*
X1617Y443D03*
X1617Y243D03*
X1686Y2850D03*
X1686Y2650D03*
X1686Y2450D03*
X1686Y2250D03*
X137Y2870D03*
X137Y2670D03*
X137Y2470D03*
X137Y2270D03*
X1690Y1252D03*
X1690Y1052D03*
X1687Y1973D03*
X1687Y1773D03*
X1687Y1573D03*
G54D11*
X983Y1854D03*
X983Y1454D03*
G54D12*
X1796Y122D03*
X1796Y3057D03*
X110Y3057D03*
X110Y122D03*
G54D13*
X648Y861D03*
X648Y761D03*
X648Y661D03*
X648Y562D03*
X648Y462D03*
X648Y362D03*
X648Y262D03*
X648Y162D03*
X1347Y861D03*
X1347Y761D03*
X1347Y661D03*
X1347Y562D03*
X1347Y462D03*
X1347Y362D03*
X1347Y262D03*
X1347Y162D03*
G54D14*
X1341Y1245D03*
X1341Y1345D03*
X1341Y1445D03*
X1341Y1545D03*
X1341Y1645D03*
X1341Y1745D03*
X1341Y1845D03*
X1341Y1945D03*
X1341Y2045D03*
G54D15*
X1341Y2145D03*
X1341Y2245D03*
X1341Y2345D03*
G54D14*
X1341Y2445D03*
X1341Y2545D03*
G54D15*
X1341Y2645D03*
X1341Y2745D03*
X1341Y2845D03*
G54D14*
X741Y1245D03*
X741Y1345D03*
X741Y1445D03*
X741Y1545D03*
X741Y1645D03*
X741Y1745D03*
X741Y2045D03*
G54D15*
X741Y2145D03*
G54D14*
X741Y1945D03*
X741Y1845D03*
G54D15*
X741Y2245D03*
X741Y2345D03*
G54D14*
X741Y2445D03*
X741Y2545D03*
G54D15*
X741Y2645D03*
X741Y2745D03*
X741Y2845D03*
G54D16*
X326Y965D03*
X326Y1165D03*
X526Y1065D03*
G54D17*
X1341Y1245D03*
G54D18*
X326Y1165D03*
G04 End of Mask0*
M02*