; NON-PLATED HOLES START AT T1
; THROUGH (PLATED) HOLES START AT T100
M48
INCH
T1C0.125984
T100C0.039370
T101C0.036076
T102C0.037222
T103C0.037250
T104C0.041000
T105C0.035000
%
T1
X017958Y001220
X001098Y001220
X001098Y030568
X017958Y030568
T100
X003806Y004898
X001371Y024696
X016874Y015733
X003367Y017692
X001371Y026696
X001371Y028696
X016895Y012522
X016861Y024499
X016169Y002426
X003806Y006898
X016169Y008426
X016895Y010522
X016874Y019733
X001371Y022696
X016169Y004426
X003367Y019692
X003367Y015692
X016874Y017733
X016861Y022499
X016861Y028499
X003367Y013692
X016861Y026499
X016169Y006426
X003806Y002898
T101
X013468Y006614
X006475Y001616
X006475Y006614
X006475Y007614
X013468Y005615
X006475Y003615
X013468Y001616
X013468Y002616
X006475Y002616
X013468Y004615
X013468Y003615
X013468Y007614
X006475Y008613
X006475Y004615
X006475Y005615
X013468Y008613
T102
X007406Y018449
X007406Y012449
X013406Y012449
X013406Y016449
X007406Y024449
X013406Y017449
X013406Y013449
X007406Y015449
X007406Y019449
X013406Y024449
X013406Y015449
X007406Y014449
X007406Y020449
X007406Y013449
X007406Y025449
X007406Y017449
X013406Y018449
X013406Y014449
X007406Y016449
X013406Y025449
X013406Y020449
X013406Y019449
T103
X007406Y027449
X013406Y027449
X013406Y021449
X007406Y021449
X013406Y028449
X013406Y026449
X013406Y022449
X007406Y022449
X013406Y023449
X007406Y026449
X007406Y028449
X007406Y023449
T104
X003261Y011650
X005261Y010650
X003261Y009650
T105
X009832Y014539
X009832Y018539
T00
M30
