G04 MADE WITH FRITZING*
G04 WWW.FRITZING.ORG*
G04 DOUBLE SIDED*
G04 HOLES PLATED*
G04 CONTOUR ON CENTER OF CONTOUR VECTOR*
%ASAXBY*%
%FSLAX23Y23*%
%MOIN*%
%OFA0B0*%
%SFA1.0B1.0*%
%ADD10C,0.094488*%
%ADD11C,0.075000*%
%ADD12C,0.077701*%
%ADD13C,0.070555*%
%ADD14C,0.070583*%
%ADD15C,0.099000*%
%ADD16R,0.070570X0.070542*%
%ADD17R,0.099000X0.099000*%
%ADD18C,0.032000*%
%ADD19C,0.024000*%
%ADD20C,0.048000*%
%LNCOPPER0*%
G90*
G70*
G54D10*
X381Y690D03*
X381Y490D03*
X381Y290D03*
X337Y1969D03*
X337Y1769D03*
X337Y1569D03*
X337Y1369D03*
X1617Y843D03*
X1617Y643D03*
X1617Y443D03*
X1617Y243D03*
X1686Y2850D03*
X1686Y2650D03*
X1686Y2450D03*
X1686Y2250D03*
X137Y2870D03*
X137Y2670D03*
X137Y2470D03*
X137Y2270D03*
X1690Y1252D03*
X1690Y1052D03*
X1687Y1973D03*
X1687Y1773D03*
X1687Y1573D03*
G54D11*
X983Y1854D03*
X983Y1454D03*
G54D12*
X648Y861D03*
X648Y761D03*
X648Y661D03*
X648Y562D03*
X648Y462D03*
X648Y362D03*
X648Y262D03*
X648Y162D03*
X1347Y861D03*
X1347Y761D03*
X1347Y661D03*
X1347Y562D03*
X1347Y462D03*
X1347Y362D03*
X1347Y262D03*
X1347Y162D03*
G54D13*
X1341Y1245D03*
X1341Y1345D03*
X1341Y1445D03*
X1341Y1545D03*
X1341Y1645D03*
X1341Y1745D03*
X1341Y1845D03*
X1341Y1945D03*
X1341Y2045D03*
G54D14*
X1341Y2145D03*
X1341Y2245D03*
X1341Y2345D03*
G54D13*
X1341Y2445D03*
X1341Y2545D03*
G54D14*
X1341Y2645D03*
X1341Y2745D03*
X1341Y2845D03*
G54D13*
X741Y1245D03*
X741Y1345D03*
X741Y1445D03*
X741Y1545D03*
X741Y1645D03*
X741Y1745D03*
X741Y2045D03*
G54D14*
X741Y2145D03*
G54D13*
X741Y1945D03*
X741Y1845D03*
G54D14*
X741Y2245D03*
X741Y2345D03*
G54D13*
X741Y2445D03*
X741Y2545D03*
G54D14*
X741Y2645D03*
X741Y2745D03*
X741Y2845D03*
G54D15*
X326Y965D03*
X326Y1165D03*
X526Y1065D03*
G54D16*
X1341Y1245D03*
G54D17*
X326Y1165D03*
G54D18*
X647Y1752D02*
X705Y1747D01*
D02*
X648Y896D02*
X647Y1752D01*
G54D19*
D02*
X711Y2045D02*
X522Y2042D01*
D02*
X522Y2042D02*
X526Y1097D01*
G54D20*
D02*
X1586Y871D02*
X1449Y993D01*
D02*
X873Y1742D02*
X781Y1744D01*
D02*
X873Y1002D02*
X873Y1742D01*
D02*
X1449Y993D02*
X873Y1002D01*
G54D19*
D02*
X275Y2804D02*
X644Y2801D01*
D02*
X644Y2801D02*
X650Y2565D01*
D02*
X650Y2565D02*
X712Y2551D01*
D02*
X165Y2856D02*
X275Y2804D01*
D02*
X546Y2621D02*
X300Y2624D01*
D02*
X300Y2624D02*
X167Y2661D01*
D02*
X607Y2446D02*
X546Y2621D01*
D02*
X711Y2445D02*
X607Y2446D01*
D02*
X544Y2446D02*
X325Y2446D01*
D02*
X546Y2342D02*
X544Y2446D01*
D02*
X325Y2446D02*
X168Y2466D01*
D02*
X711Y2344D02*
X546Y2342D01*
D02*
X473Y2238D02*
X168Y2267D01*
D02*
X711Y2244D02*
X473Y2238D01*
G54D18*
D02*
X1662Y2423D02*
X1498Y2246D01*
D02*
X1498Y2246D02*
X1376Y2245D01*
G04 End of Copper0*
M02*