; NON-PLATED HOLES START AT T1
; THROUGH (PLATED) HOLES START AT T100
M48
INCH
T1C0.086614
T100C0.039370
T101C0.041000
T102C0.036076
T103C0.037222
T104C0.037250
T105C0.035000
%
T1
X001098Y028100
X017936Y001076
X001098Y001009
X017933Y028126
T100
X002511Y021172
X017562Y017078
X002889Y002123
X017562Y023078
X002889Y006123
X002889Y004123
X015956Y007484
X002511Y023172
X015956Y009484
X017562Y025078
X002511Y025172
X002496Y013527
X002496Y015527
X017562Y015078
X017562Y021078
X017562Y019078
T101
X004482Y009876
X002482Y008876
X002482Y010876
T102
X012551Y002841
X005558Y003841
X012551Y005840
X012551Y006839
X005558Y006839
X005558Y005840
X012551Y000842
X005558Y002841
X005558Y007839
X005558Y001841
X005558Y004840
X012551Y003841
X012551Y004840
X005558Y000842
X012551Y007839
X012551Y001841
T103
X006489Y016695
X012489Y010695
X006489Y011695
X006489Y015695
X012489Y016695
X012489Y018695
X012489Y012695
X012489Y017695
X012489Y015695
X012489Y023695
X012489Y011695
X006489Y012695
X012489Y022695
X006489Y023695
X006489Y022695
X006489Y014695
X006489Y017695
X006489Y018695
X006489Y010695
X012489Y013695
X012489Y014695
X006489Y013695
T104
X012489Y019695
X006489Y026695
X006489Y021695
X012489Y020695
X012489Y026695
X006489Y019695
X012489Y025695
X006489Y020695
X006489Y025695
X012489Y024695
X012489Y021695
X006489Y024695
T105
X008915Y013764
X008915Y017764
T00
M30
