G04 MADE WITH FRITZING*
G04 WWW.FRITZING.ORG*
G04 DOUBLE SIDED*
G04 HOLES PLATED*
G04 CONTOUR ON CENTER OF CONTOUR VECTOR*
%ASAXBY*%
%FSLAX23Y23*%
%MOIN*%
%OFA0B0*%
%SFA1.0B1.0*%
%ADD10C,0.104488*%
%ADD11C,0.085000*%
%ADD12C,0.096614*%
%ADD13C,0.087701*%
%ADD14C,0.080555*%
%ADD15C,0.080583*%
%ADD16C,0.109000*%
%ADD17R,0.080570X0.080542*%
%ADD18R,0.109000X0.109000*%
%LNMASK0*%
G90*
G70*
G54D10*
X289Y612D03*
X289Y412D03*
X289Y212D03*
X1596Y948D03*
X1596Y748D03*
X250Y1553D03*
X250Y1353D03*
X1756Y2508D03*
X1756Y2308D03*
X1756Y2108D03*
X1756Y1908D03*
X1756Y1708D03*
X1756Y1508D03*
X251Y2517D03*
X251Y2317D03*
X251Y2117D03*
G54D11*
X892Y1776D03*
X892Y1376D03*
G54D12*
X1794Y108D03*
X1793Y2813D03*
X110Y2810D03*
X110Y101D03*
G54D13*
X556Y784D03*
X556Y684D03*
X556Y584D03*
X556Y484D03*
X556Y384D03*
X556Y284D03*
X556Y184D03*
X556Y84D03*
X1255Y784D03*
X1255Y684D03*
X1255Y584D03*
X1255Y484D03*
X1255Y384D03*
X1255Y284D03*
X1255Y184D03*
X1255Y84D03*
G54D14*
X1249Y1070D03*
X1249Y1170D03*
X1249Y1270D03*
X1249Y1370D03*
X1249Y1470D03*
X1249Y1570D03*
X1249Y1670D03*
X1249Y1770D03*
X1249Y1870D03*
G54D15*
X1249Y1970D03*
X1249Y2070D03*
X1249Y2170D03*
G54D14*
X1249Y2270D03*
X1249Y2370D03*
G54D15*
X1249Y2470D03*
X1249Y2570D03*
X1249Y2670D03*
G54D14*
X649Y1070D03*
X649Y1170D03*
X649Y1270D03*
X649Y1370D03*
X649Y1470D03*
X649Y1570D03*
X649Y1870D03*
G54D15*
X649Y1970D03*
G54D14*
X649Y1770D03*
X649Y1670D03*
G54D15*
X649Y2070D03*
X649Y2170D03*
G54D14*
X649Y2270D03*
X649Y2370D03*
G54D15*
X649Y2470D03*
X649Y2570D03*
X649Y2670D03*
G54D16*
X248Y888D03*
X248Y1088D03*
X448Y988D03*
G54D17*
X1249Y1070D03*
G54D18*
X248Y1088D03*
G04 End of Mask0*
M02*