G04 MADE WITH FRITZING*
G04 WWW.FRITZING.ORG*
G04 DOUBLE SIDED*
G04 HOLES PLATED*
G04 CONTOUR ON CENTER OF CONTOUR VECTOR*
%ASAXBY*%
%FSLAX23Y23*%
%MOIN*%
%OFA0B0*%
%SFA1.0B1.0*%
%ADD10C,0.094488*%
%ADD11C,0.075000*%
%ADD12C,0.077701*%
%ADD13C,0.070555*%
%ADD14C,0.070583*%
%ADD15C,0.099000*%
%ADD16R,0.070570X0.070542*%
%ADD17R,0.099000X0.099000*%
%ADD18C,0.024000*%
%LNCOPPER0*%
G90*
G70*
G54D10*
X289Y612D03*
X289Y412D03*
X289Y212D03*
X1596Y948D03*
X1596Y748D03*
X250Y1553D03*
X250Y1353D03*
X1756Y2508D03*
X1756Y2308D03*
X1756Y2108D03*
X1756Y1908D03*
X1756Y1708D03*
X1756Y1508D03*
X251Y2517D03*
X251Y2317D03*
X251Y2117D03*
G54D11*
X892Y1776D03*
X892Y1376D03*
G54D12*
X556Y784D03*
X556Y684D03*
X556Y584D03*
X556Y484D03*
X556Y384D03*
X556Y284D03*
X556Y184D03*
X556Y84D03*
X1255Y784D03*
X1255Y684D03*
X1255Y584D03*
X1255Y484D03*
X1255Y384D03*
X1255Y284D03*
X1255Y184D03*
X1255Y84D03*
G54D13*
X1249Y1070D03*
X1249Y1170D03*
X1249Y1270D03*
X1249Y1370D03*
X1249Y1470D03*
X1249Y1570D03*
X1249Y1670D03*
X1249Y1770D03*
X1249Y1870D03*
G54D14*
X1249Y1970D03*
X1249Y2070D03*
X1249Y2170D03*
G54D13*
X1249Y2270D03*
X1249Y2370D03*
G54D14*
X1249Y2470D03*
X1249Y2570D03*
X1249Y2670D03*
G54D13*
X649Y1070D03*
X649Y1170D03*
X649Y1270D03*
X649Y1370D03*
X649Y1470D03*
X649Y1570D03*
X649Y1870D03*
G54D14*
X649Y1970D03*
G54D13*
X649Y1770D03*
X649Y1670D03*
G54D14*
X649Y2070D03*
X649Y2170D03*
G54D13*
X649Y2270D03*
X649Y2370D03*
G54D14*
X649Y2470D03*
X649Y2570D03*
X649Y2670D03*
G54D15*
X248Y888D03*
X248Y1088D03*
X448Y988D03*
G54D16*
X1249Y1070D03*
G54D17*
X248Y1088D03*
G54D18*
X555Y1563D02*
X619Y1567D01*
D02*
X556Y813D02*
X555Y1563D01*
D02*
X628Y1848D02*
X459Y1669D01*
D02*
X459Y1669D02*
X449Y1019D01*
D02*
X1488Y750D02*
X1380Y879D01*
D02*
X786Y1515D02*
X677Y1559D01*
D02*
X791Y885D02*
X786Y1515D01*
D02*
X1565Y749D02*
X1488Y750D01*
D02*
X1380Y879D02*
X791Y885D01*
D02*
X459Y2735D02*
X802Y2735D01*
D02*
X802Y2735D02*
X1120Y2307D01*
D02*
X1120Y2307D02*
X1220Y2278D01*
D02*
X282Y2317D02*
X450Y2313D01*
D02*
X450Y2313D02*
X459Y2735D01*
D02*
X885Y2799D02*
X1159Y2391D01*
D02*
X361Y2798D02*
X885Y2799D01*
D02*
X1159Y2391D02*
X1220Y2376D01*
D02*
X262Y2546D02*
X361Y2798D01*
D02*
X1619Y1599D02*
X1731Y1525D01*
D02*
X1394Y1599D02*
X1619Y1599D01*
D02*
X1276Y1657D02*
X1394Y1599D01*
D02*
X1279Y1770D02*
X1586Y1777D01*
D02*
X1586Y1777D02*
X1728Y1719D01*
D02*
X1632Y1960D02*
X1383Y1960D01*
D02*
X1728Y1920D02*
X1632Y1960D01*
D02*
X1383Y1960D02*
X1274Y1886D01*
D02*
X1383Y2028D02*
X1619Y2040D01*
D02*
X1619Y2040D02*
X1729Y2094D01*
D02*
X1276Y1981D02*
X1383Y2028D01*
D02*
X1356Y2113D02*
X1276Y2081D01*
D02*
X1629Y2226D02*
X1391Y2223D01*
D02*
X1391Y2223D02*
X1356Y2113D01*
D02*
X1730Y2291D02*
X1629Y2226D01*
D02*
X1657Y2422D02*
X1371Y2422D01*
D02*
X1733Y2488D02*
X1657Y2422D01*
D02*
X1371Y2422D02*
X1328Y2198D01*
D02*
X1328Y2198D02*
X1277Y2180D01*
G04 End of Copper0*
M02*