G04 MADE WITH FRITZING*
G04 WWW.FRITZING.ORG*
G04 DOUBLE SIDED*
G04 HOLES PLATED*
G04 CONTOUR ON CENTER OF CONTOUR VECTOR*
%ASAXBY*%
%FSLAX23Y23*%
%MOIN*%
%OFA0B0*%
%SFA1.0B1.0*%
%ADD10C,0.094488*%
%ADD11C,0.075000*%
%ADD12C,0.077701*%
%ADD13C,0.070555*%
%ADD14C,0.070583*%
%ADD15C,0.099000*%
%ADD16R,0.070570X0.070542*%
%ADD17R,0.099000X0.099000*%
%ADD18R,0.062992X0.074803*%
%ADD19C,0.032000*%
%ADD20C,0.024000*%
%LNCOPPER1*%
G90*
G70*
G54D10*
X289Y612D03*
X289Y412D03*
X289Y212D03*
X1596Y948D03*
X1596Y748D03*
G54D11*
X892Y1776D03*
X892Y1376D03*
G54D12*
X556Y784D03*
X556Y684D03*
X556Y584D03*
X556Y484D03*
X556Y384D03*
X556Y284D03*
X556Y184D03*
X556Y84D03*
X1255Y784D03*
X1255Y684D03*
X1255Y584D03*
X1255Y484D03*
X1255Y384D03*
X1255Y284D03*
X1255Y184D03*
X1255Y84D03*
G54D13*
X1249Y1070D03*
X1249Y1170D03*
X1249Y1270D03*
X1249Y1370D03*
X1249Y1470D03*
X1249Y1570D03*
X1249Y1670D03*
X1249Y1770D03*
X1249Y1870D03*
G54D14*
X1249Y1970D03*
X1249Y2070D03*
X1249Y2170D03*
G54D13*
X1249Y2270D03*
X1249Y2370D03*
G54D14*
X1249Y2470D03*
X1249Y2570D03*
X1249Y2670D03*
G54D13*
X649Y1070D03*
X649Y1170D03*
X649Y1270D03*
X649Y1370D03*
X649Y1470D03*
X649Y1570D03*
X649Y1870D03*
G54D14*
X649Y1970D03*
G54D13*
X649Y1770D03*
X649Y1670D03*
G54D14*
X649Y2070D03*
X649Y2170D03*
G54D13*
X649Y2270D03*
X649Y2370D03*
G54D14*
X649Y2470D03*
X649Y2570D03*
X649Y2670D03*
G54D15*
X248Y888D03*
X248Y1088D03*
X448Y988D03*
G54D10*
X251Y2517D03*
X251Y2317D03*
X251Y2117D03*
X250Y1553D03*
X250Y1353D03*
X1756Y2508D03*
X1756Y2308D03*
X1756Y2108D03*
X1756Y1908D03*
X1756Y1708D03*
X1756Y1508D03*
G54D16*
X1249Y1070D03*
G54D17*
X248Y1088D03*
G54D18*
X1445Y1859D03*
X1567Y1859D03*
X1445Y2497D03*
X1567Y2497D03*
X1445Y1686D03*
X1567Y1686D03*
X1445Y2317D03*
X1567Y2317D03*
X1445Y1505D03*
X1567Y1505D03*
X1445Y2142D03*
X1567Y2142D03*
G54D19*
X412Y106D02*
X317Y189D01*
D02*
X448Y344D02*
X402Y604D01*
D02*
X402Y604D02*
X325Y610D01*
D02*
X526Y301D02*
X448Y344D01*
D02*
X524Y198D02*
X407Y246D01*
D02*
X407Y246D02*
X310Y383D01*
D02*
X522Y90D02*
X412Y106D01*
G54D20*
D02*
X891Y2417D02*
X892Y1805D01*
D02*
X1222Y2558D02*
X891Y2417D01*
D02*
X888Y785D02*
X584Y692D01*
D02*
X1024Y730D02*
X584Y593D01*
D02*
X300Y785D02*
X527Y784D01*
D02*
X262Y859D02*
X300Y785D01*
D02*
X1018Y2283D02*
X1024Y730D01*
D02*
X1226Y2451D02*
X1018Y2283D01*
D02*
X891Y1348D02*
X888Y785D01*
D02*
X1419Y1514D02*
X1277Y1560D01*
D02*
X1369Y766D02*
X1369Y184D01*
D02*
X1369Y184D02*
X1284Y184D01*
D02*
X1572Y929D02*
X1369Y766D01*
D02*
X1445Y1654D02*
X1445Y1537D01*
D02*
X1445Y1828D02*
X1445Y1718D01*
D02*
X622Y1382D02*
X278Y1540D01*
D02*
X620Y1276D02*
X280Y1346D01*
D02*
X120Y1085D02*
X120Y1550D01*
D02*
X120Y1550D02*
X219Y1552D01*
D02*
X217Y1087D02*
X120Y1085D01*
D02*
X125Y471D02*
X260Y423D01*
D02*
X120Y1085D02*
X125Y471D01*
D02*
X251Y2086D02*
X250Y1584D01*
D02*
X1725Y1507D02*
X1593Y1505D01*
D02*
X1726Y1704D02*
X1593Y1689D01*
D02*
X1726Y1900D02*
X1593Y1866D01*
D02*
X1445Y1221D02*
X1445Y1473D01*
D02*
X1581Y975D02*
X1445Y1221D01*
D02*
X1726Y2113D02*
X1593Y2137D01*
D02*
X1725Y2309D02*
X1593Y2316D01*
D02*
X1725Y2506D02*
X1593Y2499D01*
D02*
X1445Y2110D02*
X1445Y1891D01*
D02*
X1445Y2349D02*
X1445Y2466D01*
D02*
X1445Y2174D02*
X1445Y2285D01*
G04 End of Copper1*
M02*